<?xml version="1.0" standalone="no"?>
<!DOCTYPE svg PUBLIC "-//W3C//DTD SVG 20010904//EN"
 "http://www.w3.org/TR/2001/REC-SVG-20010904/DTD/svg10.dtd">
<svg version="1.0" xmlns="http://www.w3.org/2000/svg"
 width="474.000000pt" height="149.000000pt" viewBox="0 0 474.000000 149.000000"
 preserveAspectRatio="xMidYMid meet">

<g transform="translate(0.000000,149.000000) scale(0.100000,-0.100000)"
fill="#000000" stroke="none">
<path d="M1578 1483 c-38 -2 -68 -6 -68 -8 0 -3 10 -25 22 -50 23 -48 29 -50
93 -36 22 5 66 12 98 16 57 6 57 7 57 40 0 48 -2 48 -202 38z"/>
<path d="M1846 1465 c-19 -50 -14 -52 127 -58 87 -3 136 -1 145 6 19 15 3 22
-93 40 -145 28 -172 30 -179 12z"/>
<path d="M1305 1435 c-49 -14 -94 -24 -98 -25 -17 0 -1 -20 56 -68 l58 -49 87
33 c48 18 86 38 84 44 -1 6 -14 29 -27 50 -30 47 -35 48 -160 15z"/>
<path d="M2191 1396 c-9 -10 2 -17 53 -30 34 -10 99 -33 142 -52 107 -46 117
-42 19 8 -124 63 -201 90 -214 74z"/>
<path d="M1014 1326 c-49 -24 -98 -51 -109 -59 -19 -14 -18 -15 15 -29 19 -8
71 -28 116 -43 l80 -29 77 51 78 51 -72 51 c-40 28 -78 51 -84 51 -6 0 -52
-20 -101 -44z"/>
<path d="M1843 1360 c-13 -5 -23 -15 -23 -22 0 -18 241 -9 248 10 2 8 -10 12
-41 12 -24 0 -71 2 -103 5 -32 3 -69 1 -81 -5z"/>
<path d="M1658 1346 c-77 -14 -82 -17 -73 -46 5 -14 12 -19 24 -15 10 3 48 12
84 19 75 16 87 22 87 42 0 17 -28 17 -122 0z"/>
<path d="M2127 1333 c-4 -6 23 -15 61 -21 38 -7 105 -22 151 -35 105 -31 90
-14 -22 23 -96 33 -181 47 -190 33z"/>
<path d="M1437 1286 c-33 -14 -61 -27 -64 -30 -6 -5 36 -45 48 -46 3 0 29 11
57 25 29 14 56 25 62 25 14 0 13 23 -2 38 -17 17 -35 15 -101 -12z"/>
<path d="M2920 1276 c-341 -44 -594 -130 -1112 -377 -199 -95 -218 -102 -298
-110 -747 -75 -1125 -184 -1342 -387 -81 -77 -141 -174 -154 -252 l-6 -35 35
50 c83 118 214 218 336 255 128 40 321 18 449 -50 117 -62 213 -173 249 -286
9 -30 20 -54 25 -54 17 0 8 120 -13 176 -57 152 -241 277 -442 300 -58 7 -58
7 -30 19 98 41 441 112 698 145 233 29 353 34 473 20 112 -13 307 -6 296 11
-3 5 -19 9 -35 9 -79 0 -179 52 -179 92 1 46 347 229 585 307 168 56 270 73
551 91 274 18 529 -9 719 -77 38 -14 126 -53 195 -86 l125 -62 -65 -7 c-36 -4
-135 -14 -220 -23 -256 -26 -629 -87 -900 -146 -146 -33 -299 -75 -309 -85 -3
-4 5 -4 19 0 129 33 404 63 978 106 777 58 1064 94 1160 144 22 11 14 14 -69
19 -123 9 -213 31 -482 121 -436 146 -590 177 -912 182 -146 2 -256 -1 -325
-10z"/>
<path d="M1243 1189 c-35 -23 -63 -44 -63 -47 0 -4 21 -15 47 -24 47 -17 48
-17 73 6 14 13 38 32 54 42 l28 18 -26 23 c-15 13 -32 23 -39 22 -7 0 -40 -18
-74 -40z"/>
<path d="M739 1147 c-35 -30 -77 -69 -93 -88 l-29 -34 24 -3 c13 -1 87 -8 164
-15 l139 -13 22 25 c12 14 21 27 20 28 -1 1 -49 10 -106 19 -58 9 -108 20
-113 23 -5 5 211 -12 241 -18 2 -1 0 -5 -3 -11 -3 -6 5 -10 19 -10 34 0 40
-14 16 -35 -11 -10 -20 -21 -20 -25 0 -4 30 -10 67 -12 61 -4 69 -2 88 19 l20
24 252 -41 252 -41 48 24 48 25 -35 6 c-19 3 -138 15 -265 26 -273 25 -281 26
-265 45 9 11 1 16 -42 29 -52 15 -53 15 -78 -9 -25 -24 -69 -33 -83 -18 -4 4
4 19 18 33 l25 26 -124 37 c-68 20 -128 37 -133 37 -5 0 -38 -24 -74 -53z"/>
<path d="M546 933 c-3 -8 -6 -61 -6 -117 l0 -103 128 30 c70 16 132 31 139 32
10 3 96 156 90 161 -1 1 -79 4 -174 7 -147 5 -172 3 -177 -10z"/>
<path d="M962 913 c-26 -37 -64 -114 -59 -119 2 -2 38 4 80 13 76 16 78 18
107 65 17 27 30 53 30 58 0 6 -30 10 -69 10 -65 0 -71 -2 -89 -27z"/>
<path d="M2156 867 c23 -8 51 -21 63 -29 l21 -15 -23 -21 c-12 -12 -39 -28
-60 -37 -20 -8 -37 -18 -37 -22 0 -3 27 -3 60 0 65 7 124 32 154 66 19 21 19
21 -30 42 -30 14 -76 23 -119 26 l-70 3 41 -13z"/>
<path d="M2806 480 c-34 -11 -73 -45 -92 -82 -10 -19 -22 -28 -38 -28 -17 0
-27 -8 -34 -27 -5 -16 -13 -36 -17 -45 -6 -14 -2 -18 18 -18 l25 0 -49 -126
c-27 -69 -49 -129 -49 -135 0 -5 19 -9 43 -9 l42 0 50 135 49 135 68 0 c74 0
71 -2 92 68 7 21 5 22 -60 22 -58 0 -65 2 -54 15 9 10 32 15 75 15 l63 0 15
45 16 45 -67 -1 c-37 0 -80 -5 -96 -9z"/>
<path d="M1460 408 l0 -53 130 3 130 3 -20 -51 c-11 -28 -20 -53 -20 -55 0 -3
-49 -5 -110 -5 l-110 0 0 -50 0 -50 97 0 c107 0 168 20 197 64 27 42 66 149
66 181 0 59 -17 65 -198 65 l-162 0 0 -52z"/>
<path d="M1912 349 c-48 -24 -55 -35 -106 -168 -41 -106 -45 -145 -17 -161 11
-5 78 -10 149 -10 l130 0 10 28 c5 15 13 35 17 45 7 16 -3 17 -113 17 -115 0
-120 1 -115 20 5 19 14 20 118 20 100 0 116 2 146 23 40 26 79 97 79 144 0 52
-27 63 -150 63 -87 0 -112 -4 -148 -21z m208 -74 c0 -2 -5 -16 -12 -30 -11
-24 -14 -25 -105 -25 -51 0 -93 2 -93 4 0 3 4 16 10 30 9 25 12 26 105 26 52
0 95 -2 95 -5z"/>
<path d="M2284 334 c-8 -20 -35 -88 -59 -152 -24 -65 -48 -129 -54 -145 -10
-27 -10 -27 34 -27 l44 0 20 54 c11 29 34 90 51 135 l31 81 71 0 c60 0 69 -2
64 -16 -3 -9 -9 -27 -12 -40 -6 -23 -4 -24 38 -24 l44 0 18 55 c18 59 13 85
-24 105 -10 5 -71 10 -135 10 l-116 0 -15 -36z"/>
<path d="M3003 349 c-51 -25 -63 -43 -108 -161 -60 -161 -50 -178 114 -178 93
0 109 3 146 25 45 26 54 40 104 172 36 96 38 116 11 143 -17 17 -33 20 -122
20 -84 0 -111 -4 -145 -21z m187 -78 c0 -6 -14 -46 -32 -90 l-31 -81 -84 0
c-46 0 -83 4 -83 10 0 5 10 35 21 67 12 32 26 68 30 81 8 20 14 22 94 22 47 0
85 -4 85 -9z"/>
<path d="M3365 358 c-2 -7 -32 -84 -65 -171 -33 -87 -60 -163 -60 -168 0 -6
19 -9 42 -7 l42 3 51 130 51 130 68 3 c74 3 75 3 50 -62 -5 -13 2 -16 39 -16
43 0 45 2 61 40 23 57 21 96 -6 114 -29 21 -266 23 -273 4z"/>
<path d="M3676 195 c-36 -96 -66 -177 -66 -180 0 -3 19 -5 43 -5 l43 0 50 132
50 133 67 3 c38 2 67 -1 67 -7 0 -5 -20 -62 -45 -128 -25 -65 -45 -121 -45
-125 0 -5 19 -8 43 -8 l42 0 50 133 50 132 68 3 c37 2 67 -1 67 -7 0 -5 -20
-61 -45 -125 -25 -64 -45 -121 -45 -126 0 -6 19 -10 43 -10 l42 0 53 143 c29
78 52 150 52 160 0 9 -9 26 -19 36 -18 18 -37 19 -259 20 l-240 0 -66 -174z"/>
<path d="M4365 334 c-8 -20 -15 -40 -15 -45 0 -5 52 -9 116 -9 102 0 115 -2
110 -16 -3 -9 -6 -18 -6 -20 0 -2 -48 -4 -108 -4 -136 0 -165 -13 -204 -91
-60 -119 -35 -142 144 -137 165 4 171 8 232 165 25 64 46 127 46 139 0 44 -33
54 -172 54 l-128 0 -15 -36z m161 -200 c-3 -9 -6 -20 -6 -25 0 -5 -43 -9 -96
-9 -84 0 -95 2 -90 16 3 9 6 20 6 25 0 5 43 9 96 9 84 0 95 -2 90 -16z"/>
</g>
</svg>
