<?xml version="1.0" standalone="no"?>
<!DOCTYPE svg PUBLIC "-//W3C//DTD SVG 20010904//EN"
 "http://www.w3.org/TR/2001/REC-SVG-20010904/DTD/svg10.dtd">
<svg version="1.0" xmlns="http://www.w3.org/2000/svg"
 width="474.000000pt" height="149.000000pt" viewBox="0 0 474.000000 149.000000"
 preserveAspectRatio="xMidYMid meet">

<g transform="translate(0.000000,149.000000) scale(0.100000,-0.100000)"
fill="#000000" stroke="none">
<path d="M1524 1474 c-17 -7 26 -106 43 -100 12 5 55 12 181 32 29 4 32 8 32
39 l0 35 -122 -1 c-68 0 -128 -3 -134 -5z"/>
<path d="M1846 1464 c-3 -9 -6 -24 -6 -35 0 -17 8 -19 83 -20 45 0 105 -4 133
-8 43 -6 53 -4 62 10 10 16 4 19 -56 33 -37 8 -89 17 -117 21 -27 3 -60 8 -71
10 -14 3 -24 -1 -28 -11z"/>
<path d="M1311 1435 c-52 -14 -98 -28 -103 -33 -7 -7 72 -83 108 -105 6 -3 42
6 80 22 38 16 77 31 86 34 16 6 15 11 -10 54 -17 28 -36 49 -48 50 -10 1 -61
-9 -113 -22z"/>
<path d="M2186 1391 c-3 -5 33 -21 81 -36 47 -14 111 -38 141 -51 30 -13 57
-22 60 -20 10 11 -228 116 -263 116 -7 0 -16 -4 -19 -9z"/>
<path d="M1000 1318 c-56 -29 -102 -57 -102 -63 0 -9 34 -24 167 -74 l50 -19
73 49 c40 26 72 52 71 56 -3 11 -134 103 -147 103 -5 0 -55 -24 -112 -52z"/>
<path d="M755 1157 c-73 -61 -141 -137 -122 -137 17 0 197 -17 268 -25 41 -5
47 -3 67 24 l21 29 -117 18 c-145 22 -131 30 25 15 l116 -12 29 28 29 27 -128
38 c-71 21 -130 38 -133 38 -3 0 -28 -19 -55 -43z"/>
<path d="M1025 1050 c11 -5 166 -32 343 -61 l324 -52 49 23 c27 13 47 25 45
27 -4 5 -720 73 -754 72 -24 0 -25 -1 -7 -9z"/>
<path d="M545 932 c-3 -8 -5 -61 -5 -118 0 -96 2 -105 18 -100 41 13 228 56
242 56 13 0 50 62 98 162 2 4 -76 8 -172 10 -139 2 -177 0 -181 -10z"/>
<path d="M2807 475 c-47 -16 -81 -47 -97 -85 -8 -19 -20 -30 -38 -32 -19 -2
-28 -12 -38 -40 -13 -37 -12 -38 11 -38 23 0 23 -1 -26 -127 -27 -70 -49 -131
-49 -135 0 -4 19 -8 43 -8 l42 0 50 135 50 135 67 0 68 0 15 36 c23 55 21 57
-44 51 -62 -7 -77 -2 -60 20 7 8 34 13 74 13 60 0 64 1 73 28 5 15 13 35 17
45 6 15 0 17 -56 17 -35 -1 -81 -7 -102 -15z"/>
<path d="M1460 408 l0 -53 130 3 130 3 -20 -53 c-11 -29 -20 -54 -20 -55 0 -2
-49 -3 -110 -3 l-110 0 0 -50 0 -50 100 0 c110 0 165 18 195 64 26 40 65 148
65 182 0 57 -22 64 -202 64 l-158 0 0 -52z"/>
<path d="M3015 356 c-49 -22 -80 -65 -119 -166 -62 -164 -52 -180 108 -180
168 0 187 14 251 187 41 112 41 142 0 161 -35 16 -202 15 -240 -2z m175 -85
c0 -5 -14 -46 -31 -90 l-31 -81 -84 0 c-48 0 -84 4 -84 10 0 16 50 142 61 157
13 15 169 19 169 4z"/>
<path d="M3352 318 c-11 -29 -41 -107 -66 -173 -25 -66 -46 -123 -46 -127 0
-5 19 -8 43 -8 l42 0 50 133 50 132 69 3 c67 3 68 2 64 -20 -3 -13 -9 -31 -13
-40 -6 -16 -1 -18 38 -18 43 0 45 2 61 40 20 50 20 80 2 106 -13 17 -29 19
-144 22 l-130 4 -20 -54z"/>
<path d="M3680 203 c-35 -92 -65 -174 -68 -180 -3 -9 9 -13 40 -13 l45 0 50
133 50 132 67 3 c42 2 66 -1 66 -8 0 -6 -20 -64 -45 -129 -25 -65 -45 -121
-45 -125 0 -3 19 -6 43 -6 l43 0 50 133 50 132 67 3 c38 2 67 -1 67 -7 0 -5
-20 -62 -45 -128 -25 -65 -45 -121 -45 -125 0 -5 19 -8 43 -8 l43 0 53 144
c36 98 52 153 47 169 -9 38 -52 50 -148 43 -46 -3 -87 -5 -93 -5 -5 0 -69 3
-141 6 l-131 5 -63 -169z"/>
<path d="M4371 348 c-27 -74 -35 -68 94 -68 106 0 116 -2 113 -17 -3 -16 -19
-19 -120 -23 -97 -4 -121 -8 -144 -26 -40 -30 -62 -63 -76 -116 -11 -42 -10
-49 7 -68 16 -18 30 -20 144 -20 179 0 183 3 255 189 62 160 53 171 -136 171
-124 0 -129 -1 -137 -22z m159 -207 c0 -37 -12 -41 -107 -41 -83 0 -94 2 -89
16 3 9 6 20 6 25 0 5 43 9 95 9 52 0 95 -4 95 -9z"/>
<path d="M1887 330 c-25 -22 -45 -57 -76 -137 -46 -121 -51 -157 -22 -173 11
-5 78 -10 149 -10 l129 0 16 40 15 40 -119 0 c-65 0 -119 3 -119 6 0 3 5 14
10 25 10 17 22 19 125 19 114 0 114 0 150 31 40 36 65 86 65 133 0 52 -11 56
-157 56 l-132 0 -34 -30z m233 -54 c0 -3 -4 -16 -10 -30 -9 -25 -12 -26 -105
-26 -52 0 -95 2 -95 4 0 3 4 16 10 30 9 25 12 26 105 26 52 0 95 -2 95 -4z"/>
<path d="M2246 233 c-27 -71 -57 -149 -67 -175 l-19 -48 44 0 45 0 31 81 c17
45 40 106 51 135 l20 54 71 0 c66 0 70 -1 64 -20 -3 -11 -9 -29 -12 -40 -6
-18 -2 -20 38 -20 l45 0 18 55 c16 51 16 57 1 80 -16 25 -19 25 -149 25 l-133
0 -48 -127z"/>
</g>
</svg>
